<svg width="36" height="85" viewBox="0 0 36 85" fill="none" xmlns="http://www.w3.org/2000/svg">
<path d="M18.2081 16.9129C13.5503 16.9129 9.73154 13.1084 9.73154 8.45311C9.73154 3.79787 13.5436 0 18.2081 0C22.8725 0 26.6846 3.80457 26.6846 8.45981C26.6846 13.1151 22.8725 16.9196 18.2081 16.9196V16.9129ZM33.8792 27.4894C35.1477 32.1379 36 36.3712 36 41.0197C36 43.9803 36 46.5189 35.5772 49.4795C35.5772 51.1675 33.8859 52.0181 32.6107 52.0181C30.0671 51.5961 30.4899 48.2136 30.4899 48.2136C30.4899 43.1363 30.0671 37.6438 29.6443 32.5666C29.2215 30.8719 28.7987 29.184 27.953 27.4894L27.953 80.7734C27.953 83.3121 26.255 85 23.7181 85C21.1812 85 19.4832 83.3054 19.4832 80.7734L19.4832 48.2136H16.9396L16.9396 80.7734C16.9396 83.3121 15.2416 85 12.7047 85C10.1678 85 8.4698 83.3054 8.4698 80.7734L8.4698 28.3333C7.62416 30.0213 7.20134 31.2939 7.20134 32.5599C6.3557 37.6371 6.3557 43.1296 6.3557 48.2069C6.3557 48.2069 6.77852 51.5894 4.2349 52.0114C2.54362 52.4334 1.26846 51.1675 0.845638 49.4728C0.422819 46.9342 0 43.9736 0 41.435C0 36.7864 0.845638 32.1312 2.12081 27.9046C2.96644 23.6781 5.93289 20.2955 9.32215 18.6009L25.8456 18.6009C26.2685 18.6009 30.9329 19.8668 33.8926 27.4827L33.8792 27.4894Z" fill="#FF0000"/>
</svg>
