<svg width="50" height="85" viewBox="0 0 50 85" fill="none" xmlns="http://www.w3.org/2000/svg">
<path d="M33.6635 50.3091C32.1359 53.2603 29.7922 55.7289 26.9044 57.4252L26.2488 57.7699L28.6622 64.4102C29.3667 66.1479 30.2387 67.8166 31.2501 69.4025L39.5507 81.5523C40.3041 82.8279 41.5596 83.7243 43.0175 84.0277C43.4151 84.0691 43.8057 84.0691 44.2033 84.0277C45.3612 84.0277 46.4981 83.683 47.4538 83.0279C48.6605 82.3039 49.5115 81.1317 49.8254 79.7733C50.1951 78.4424 49.9719 77.022 49.2116 75.8705L40.4296 63.5897C39.8507 62.8519 39.3763 62.0313 39.0276 61.1625L34.6401 48.4059L33.6775 50.316L33.6635 50.3091ZM14.9975 17.3489C19.8384 17.3903 23.8074 13.5564 23.8702 8.77099C23.8702 3.9235 19.8942 0 14.9975 0C10.1009 0 6.12492 3.9304 6.12492 8.77099C6.1877 13.5564 10.1567 17.3903 14.9975 17.3489ZM7.47814 59.7007C6.68295 61.0728 6.09005 62.5485 5.72036 64.0862L3.57195 78.7527C3.30689 80.2973 3.72541 81.8764 4.71591 83.09C5.65758 84.1588 6.97592 84.8414 8.40586 85H9.11037C10.2962 85 11.4611 84.6552 12.4446 84.0002C13.6443 83.2279 14.4465 81.9729 14.6418 80.5731C15.3114 74.8775 16.5042 69.2577 18.1992 63.7759L21.5823 57.7424L21.931 57.5286C33.259 51.4951 33.9565 43.7722 32.5126 38.4765L31.0617 32.2706L32.7288 33.8359L38.5253 45.8546C39.8158 48.0887 42.6338 48.9645 44.9775 47.8543C46.1215 47.3992 47.0213 46.4959 47.4538 45.3582C47.8862 44.2204 47.8165 42.9517 47.2654 41.8691L41.5596 29.9813C41.176 29.2435 40.7086 28.5609 40.1576 27.9403L30.2387 18.6108C28.7738 17.3627 26.8417 16.7973 24.9234 17.0455C23.912 17.0455 22.9006 17.211 21.938 17.5213C15.6114 19.121 11.7191 25.4166 13.1561 31.7121L15.6114 41.5174L16.1834 44.3376L15.437 45.4202L15.1719 45.8546L7.49209 59.7007H7.47814ZM0.244719 41.8898C-0.229604 43.3378 -0.00639343 44.9237 0.844597 46.1925C1.70256 47.4613 3.09763 48.2749 4.6322 48.399C5.42739 48.3853 6.19468 48.1577 6.87129 47.7509L13.6304 44.1928L11.3494 34.9943L2.5675 39.3316C1.52818 39.8487 0.739967 40.752 0.370274 41.8484L0.237743 41.8898H0.244719Z" fill="#00FF2A"/>
</svg>
